<?xml version="1.0" encoding="utf-8"?>
<svg xmlns="http://www.w3.org/2000/svg" version="1.1" id="Capa_1" x="0px" y="0px" viewBox="0 0 512 512" style="enable-background:new 0 0 512 512;">
  <g>
    <path style="fill: rgb(122, 122, 122); fill-opacity: 0.19;" d="M185.447,161.103c0.498,0.721,1.011,1.554,1.535,2.481c4.245-10.344,6.906-14.207,8.403-16.38   c1.745-2.534,3.448-5.471,5.103-8.726C182.921,103.94,170.739,32.745,170.395,7.468c0.015,1.076-12.132,41.294-8.833,71.553   C166.13,120.911,174.56,145.325,185.447,161.103z"/>
    <path style="fill: rgb(122, 122, 122); fill-opacity: 0.08;" d="M346.099,419.311c-9.88-36.648-43.265-59.516-74.565-51.078c-1.286,0.346-2.541,0.759-3.779,1.198   c-4.456-20.951-11.04-51.079-18.446-82.249c-17.221-72.488-28.381-106.699-35.315-123.599c-3.885,6.853-8.502,19.194-13.506,35.124   c14.732,46.906,32.815,124.931,45.448,185.672l0,0c-14.09,16.032-19.862,40.733-13.187,65.49   c9.881,36.648,43.265,59.516,74.565,51.078C338.616,492.51,355.98,455.96,346.099,419.311z M301.077,477.811   c-20.387,5.496-42.13-9.397-48.565-33.267c-6.435-23.87,4.874-47.675,25.261-53.172c20.386-5.496,42.13,9.398,48.565,33.267   C332.773,448.509,321.464,472.314,301.077,477.811z"/>
  </g>
  <path style="fill: rgb(160, 160, 160); fill-opacity: 0.2;" d="M230.582,7.468c-0.376,27.659-14.926,110.307-35.198,139.737  c-3.941,5.721-15.954,23.121-43.717,139.979c-7.406,31.17-13.989,61.298-18.445,82.249c-1.239-0.44-2.492-0.851-3.78-1.198  c-31.3-8.438-64.685,14.43-74.565,51.078s7.484,73.199,38.784,81.638c31.3,8.438,64.685-14.43,74.565-51.078  c6.675-24.758,0.903-49.459-13.187-65.49l0,0c17.503-84.16,45.47-201.512,60.489-223.277c10.888-15.779,19.317-40.192,23.886-82.083  C242.716,48.762,230.568,8.544,230.582,7.468z M148.466,444.543c-6.435,23.87-28.179,38.763-48.565,33.267  c-20.387-5.496-31.696-29.302-25.261-53.172c6.435-23.87,28.179-38.763,48.565-33.267  C143.592,396.869,154.901,420.674,148.466,444.543z"/>
  <path style="fill: rgb(224, 224, 224); fill-opacity: 0;" d="M456.351,171.135c-0.075-7.082-5.838-12.785-12.92-12.785h-1.629v-0.242V10.246l0,0  c-36.227,0-65.594,29.367-65.594,65.594v45.902l0,0c19.11,0,34.602,15.492,34.602,34.602v1.763v0.242  c-7.082,0-12.845,5.702-12.92,12.785l-3.558,300.609c0,18.109,14.679,32.788,32.788,32.788l0,0  c18.109,0,32.788-14.679,32.788-32.788L456.351,171.135z"/>
  <path style="fill: rgb(160, 160, 160); fill-opacity: 0.05;" d="M394.333,471.744c0,18.109,14.679,32.788,32.788,32.788c18.108,0,32.788-14.679,32.788-32.788  l-3.388-286.343h-58.798L394.333,471.744z"/>
  <path style="fill: rgb(198, 198, 198); fill-opacity: 0.28;" d="M456.351,171.135c-0.075-7.082-5.838-12.785-12.92-12.785h-1.629v-0.242V10.246  c-10.762,0-20.909,2.609-29.871,7.202v140.66v0.242h1.629c7.082,0,12.845,5.702,12.92,12.785l3.558,300.609  c0,12.727-7.257,23.752-17.853,29.186c4.481,2.297,9.554,3.602,14.935,3.602c18.108,0,32.788-14.679,32.788-32.788L456.351,171.135z  "/>
  <path style="fill: rgb(135, 135, 135); fill-opacity: 0;" d="M456.521,185.4H426.65l3.388,286.343c0,12.727-7.257,23.752-17.853,29.186  c2.22,1.139,4.588,2.032,7.065,2.645c0.079,0.02,0.159,0.036,0.239,0.055c0.501,0.119,1.006,0.227,1.514,0.324  c0.161,0.03,0.323,0.059,0.485,0.087c0.436,0.076,0.875,0.142,1.317,0.2c0.191,0.025,0.382,0.051,0.576,0.073  c0.438,0.05,0.881,0.088,1.324,0.12c0.182,0.013,0.362,0.031,0.546,0.042c0.619,0.035,1.242,0.057,1.869,0.057  c18.108,0,32.788-14.679,32.788-32.788L456.521,185.4z"/>
  <path d="M403.061,152.424c-7.329,3.04-12.549,10.245-12.636,18.622l-0.17,14.347c0,0.002,0,0.004,0,0.007c0,0.002,0,0.003,0,0.004  L388.7,316.701c-0.05,4.124,3.255,7.507,7.378,7.555c0.03,0.001,0.061,0.001,0.091,0.001c4.082,0,7.417-3.286,7.465-7.379  l1.469-124.01h44.039l0.439,37.163c0.048,4.093,3.381,7.379,7.465,7.379c0.03,0,0.061,0,0.091-0.001  c4.124-0.049,7.428-3.431,7.378-7.555l-0.694-58.798c-0.097-9.098-6.232-16.808-14.549-19.314V10.246  c0-4.125-3.342-7.468-7.468-7.468c-40.287,0-73.062,32.775-73.062,73.062v45.903c0,4.125,3.343,7.468,7.468,7.468  C389.839,129.211,401.154,139.313,403.061,152.424z M405.28,177.933l0.08-6.719c0.031-2.975,2.476-5.396,5.452-5.396  c0.642,0,1.263-0.09,1.857-0.242h27.278c0.594,0.152,1.215,0.242,1.857,0.242h1.629c2.975,0,5.422,2.421,5.454,5.406l0.08,6.709  H405.28z M383.676,75.84c0-29.521,22.121-53.973,50.659-57.648v132.449h-16.442c-2.457-18.052-16.409-32.5-34.217-35.701V75.84z" style="fill: rgb(26, 41, 84);"/>
  <path d="M464.811,254.984c-0.048-4.093-3.381-7.379-7.465-7.379c-0.03,0-0.061,0-0.091,0.001c-4.124,0.049-7.428,3.431-7.378,7.555  l2.563,216.584c0,13.962-11.358,25.32-25.32,25.32s-25.32-11.358-25.321-25.232l1.543-130.373c0.05-4.124-3.255-7.507-7.378-7.555  c-0.03-0.001-0.061-0.001-0.091-0.001c-4.083,0-7.417,3.286-7.465,7.379l-1.544,130.461c0,22.197,18.059,40.256,40.256,40.256  c22.197,0,40.256-18.059,40.255-40.343L464.811,254.984z" style="fill: rgb(26, 41, 84);"/>
  <path d="M67.43,422.695c-7.497,27.807,6.198,55.767,30.527,62.326c3.487,0.94,7.003,1.391,10.495,1.391  c20.876,0,40.802-16.102,47.225-39.924c7.498-27.807-6.197-55.767-30.527-62.326C100.817,377.6,74.927,394.889,67.43,422.695z   M141.255,442.601L141.255,442.601c-5.353,19.855-23.032,32.417-39.411,28.001c-16.378-4.417-25.347-24.163-19.994-44.018  c4.63-17.171,18.475-28.885,32.728-28.885c2.228,0,4.469,0.287,6.683,0.884C137.639,402.998,146.608,422.745,141.255,442.601z" style="fill: rgb(26, 41, 84);"/>
  <path d="M263.102,398.758c-3.352-2.402-8.017-1.633-10.42,1.72c-9.003,12.559-11.762,29.759-7.381,46.01  c6.423,23.823,26.348,39.924,47.225,39.924c3.49,0,7.009-0.451,10.494-1.391c24.33-6.56,38.024-34.519,30.527-62.326  c-7.498-27.807-33.394-45.089-57.719-38.533c-3.982,1.073-6.341,5.172-5.266,9.153c1.072,3.983,5.177,6.345,9.153,5.266  c16.378-4.413,34.059,8.148,39.411,28.001c5.353,19.855-3.617,39.602-19.994,44.018c-16.371,4.416-34.059-8.146-39.41-28.001  c-3.227-11.97-1.321-24.465,5.099-33.421C267.223,405.827,266.455,401.161,263.102,398.758z" style="fill: rgb(26, 41, 84);"/>
  <path d="M321.069,370.705c-14.749-10.103-31.529-13.798-47.667-10.574c-2.818-13.122-5.675-26.117-8.518-38.731  c-0.907-4.023-4.905-6.548-8.926-5.643c-4.023,0.906-6.55,4.904-5.643,8.927c3.388,15.034,6.799,30.611,10.136,46.302  c0.448,2.104,1.781,3.913,3.658,4.963c1.878,1.051,4.116,1.241,6.143,0.521c1.243-0.441,2.268-0.768,3.225-1.026  c13-3.502,26.901-0.81,39.15,7.582c12.618,8.644,21.944,22.22,26.26,38.229c4.316,16.01,3.08,32.435-3.484,46.249  c-6.372,13.415-17.038,22.732-30.033,26.235c-27.274,7.353-56.618-13.197-65.412-45.812c-5.782-21.446-1.342-43.907,11.586-58.616  c1.55-1.763,2.18-4.152,1.702-6.451c-12.04-57.891-30.069-136.171-44.931-184.137c1.807-5.674,3.514-10.711,5.112-15.09  c8.081,23.935,17.672,59.212,28.616,105.274c0.876,3.688,1.741,7.363,2.592,11.007c0.938,4.018,4.954,6.51,8.97,5.575  c4.017-0.938,6.512-4.955,5.574-8.97c-0.855-3.664-1.725-7.357-2.606-11.063c-13.442-56.579-24.948-97.271-34.234-121.101  c12.443-18.568,20.239-45.475,24.498-84.526c1.982-18.174-0.842-42.271-8.395-71.621c-0.225-0.873-0.393-1.515-0.482-1.896  c-0.549-3.536-3.581-6.264-7.277-6.314c-0.036,0-0.07,0-0.105,0c-4.076,0-7.409,3.277-7.466,7.366  c-0.315,23.131-9.622,77.119-22.614,112.218c-13.167-35.658-22.341-90.408-22.639-112.218C177.806,3.277,174.474,0,170.397,0  c-0.035,0-0.069,0-0.104,0.001c-3.697,0.05-6.73,2.778-7.277,6.315c-0.09,0.38-0.258,1.022-0.482,1.895  c-7.552,29.35-10.377,53.447-8.395,71.621c4.258,39.038,12.052,65.942,24.489,84.51c-4.803,12.343-11.241,31.887-19.786,63.673  c-1.071,3.983,1.289,8.08,5.272,9.15c3.982,1.065,8.08-1.29,9.15-5.273c17.375-64.63,25.571-76.532,28.272-80.452  c0.449-0.652,0.895-1.331,1.338-2.029c0.159-0.25,0.319-0.519,0.477-0.776c0.272-0.441,0.545-0.88,0.813-1.337  c0.251-0.424,0.502-0.867,0.752-1.308c0.158-0.28,0.318-0.556,0.475-0.841c0.338-0.609,0.674-1.237,1.011-1.874  c0.038-0.073,0.077-0.144,0.115-0.218c0.209-0.399,0.419-0.784,0.627-1.193c0.05-0.099,0.086-0.201,0.131-0.301  c10.821-21.517,19.453-55.484,24.789-84.889c0.639,8.035,0.615,15.225-0.073,21.537c-4.054,37.183-11.238,62.174-22.608,78.65  c-0.584,0.847-1.184,1.821-1.794,2.903c-0.028,0.047-0.064,0.089-0.091,0.136c-3.995,7.046-8.618,19.008-14.134,36.571  c-0.038,0.121-0.054,0.247-0.086,0.369c-19.597,62.418-42.342,170.601-45.549,186.02c-0.478,2.299,0.152,4.688,1.703,6.451  c12.928,14.709,17.368,37.17,11.586,58.616c-4.316,16.009-13.643,29.586-26.26,38.229c-12.253,8.394-26.157,11.084-39.151,7.582  c-12.995-3.504-23.661-12.82-30.034-26.235c-6.563-13.814-7.8-30.239-3.484-46.249c4.316-16.009,13.643-29.586,26.26-38.229  c12.253-8.395,26.157-11.086,39.149-7.582c0.957,0.258,1.982,0.585,3.228,1.026c2.028,0.72,4.267,0.528,6.143-0.521  c1.877-1.05,3.21-2.859,3.657-4.963c4.26-20.029,10.912-50.528,18.406-82.077c2.923-12.306,5.794-24.009,8.529-34.784  c1.015-3.998-1.403-8.061-5.401-9.076c-3.995-1.015-8.06,1.404-9.076,5.401c-2.754,10.848-5.642,22.627-8.584,35.007  c-6.617,27.855-12.579,54.882-16.828,74.672c-16.135-3.219-32.917,0.471-47.667,10.575c-15.549,10.651-26.999,27.223-32.239,46.663  c-5.241,19.439-3.674,39.521,4.414,56.545c8.278,17.425,22.354,29.587,39.636,34.247c5.03,1.356,10.142,2.026,15.259,2.026  c12.462-0.001,24.937-3.978,36.22-11.707c15.549-10.651,26.999-27.223,32.239-46.663c6.701-24.855,1.956-51.071-12.354-69.423  c11.399-54.506,25.272-113.968,37.404-157.319c12.923,46.105,27.18,108.437,37.406,157.319  c-14.309,18.353-19.055,44.567-12.354,69.423c9.381,34.796,38.348,58.343,68.632,58.342c5.02,0,10.078-0.647,15.088-1.998  c17.282-4.66,31.358-16.822,39.636-34.247c8.088-17.024,9.655-37.106,4.414-56.545C348.067,397.927,336.618,381.356,321.069,370.705  z M190.729,140.666c-0.096,0.154-0.191,0.306-0.287,0.457c-0.146,0.232-0.292,0.465-0.437,0.689  c-0.245,0.377-0.491,0.748-0.738,1.107c-0.012,0.017-0.023,0.035-0.035,0.052c-0.046,0.067-0.097,0.14-0.144,0.211  c-0.026,0.037-0.052,0.075-0.078,0.113c-0.026,0.038-0.05,0.074-0.077,0.112c-0.731,1.066-1.636,2.424-2.743,4.366  c-8.302-16.172-13.834-38.656-17.204-69.563c-0.684-6.276-0.711-13.422-0.084-21.402c5.1,28.076,13.189,60.14,23.204,81.516  C191.645,139.145,191.186,139.924,190.729,140.666z" style="fill: rgb(26, 41, 84);"/>
  <g/>
  <g/>
  <g/>
  <g/>
  <g/>
  <g/>
  <g/>
  <g/>
  <g/>
  <g/>
  <g/>
  <g/>
  <g/>
  <g/>
  <g/>
</svg>