<?xml version="1.0" encoding="utf-8"?>
<svg xmlns="http://www.w3.org/2000/svg" width="128" height="128" viewBox="0 0 128 128">
  <title>WHITE TEETH</title>
  <g>
    <path d="M77.348,37.667a16.22,16.22,0,0,0-9.992,3.463,5.464,5.464,0,0,1-6.712,0,16.22,16.22,0,0,0-9.992-3.463c-9.4,0-17.014,8.126-17.014,18.15a18.625,18.625,0,0,0,5.859,13.7,12.327,12.327,0,0,1,4.148,9.308q-.008.339-.008.681a23.945,23.945,0,0,0,8.227,18.416,2.417,2.417,0,0,0,3.954-1.9q-.007-.476-.007-.954c0-12.413,3.666-22.475,8.189-22.475s8.189,10.062,8.189,22.475q0,.479-.007.954a2.417,2.417,0,0,0,3.954,1.9,23.945,23.945,0,0,0,8.227-18.416q0-.342-.008-.681A12.327,12.327,0,0,1,88.5,69.518a18.625,18.625,0,0,0,5.859-13.7C94.362,45.793,86.745,37.667,77.348,37.667Z" fill="#37d4e9" style="fill-opacity: 0;"/>
    <path d="M28.333,19l.735,2.946A7.759,7.759,0,0,0,34.721,27.6l2.946.734-2.946.735a7.759,7.759,0,0,0-5.653,5.653l-.735,2.946L27.6,34.721a7.759,7.759,0,0,0-5.653-5.653L19,28.333l2.946-.734A7.759,7.759,0,0,0,27.6,21.946Z" fill="#ffc26f" style="fill-opacity: 0;"/>
    <path d="M99.667,90.332l.734,2.946a7.759,7.759,0,0,0,5.653,5.653l2.946.735-2.946.734a7.759,7.759,0,0,0-5.653,5.653L99.667,109l-.735-2.946a7.759,7.759,0,0,0-5.653-5.653l-2.946-.734,2.946-.735a7.759,7.759,0,0,0,5.653-5.653Z" fill="#ffc26f" style="fill-opacity: 0;"/>
    <circle cx="106.348" cy="76" r="2.652" fill="#ffc26f" style="fill-opacity: 0;"/>
    <circle cx="58.598" cy="25.681" r="2.652" fill="#ffc26f" style="fill-opacity: 0;"/>
    <circle cx="30.985" cy="82.902" r="2.652" fill="#ffc26f" style="fill-opacity: 0;"/>
  </g>
  <path d="M50.883,42.726a1.75,1.75,0,1,1,0,3.5,8.238,8.238,0,0,0-8.229,8.228,1.75,1.75,0,0,1-3.5,0A11.742,11.742,0,0,1,50.883,42.726Zm38.2-.179a1.751,1.751,0,0,0-.251,2.462c.278.343.546.7.8,1.066a1.751,1.751,0,0,0,2.883-1.987c-.307-.443-.629-.874-.968-1.289A1.751,1.751,0,0,0,89.08,42.547Zm7.032,13.27a21.349,21.349,0,0,0-.219-3.051,1.75,1.75,0,1,0-3.463.5,17.8,17.8,0,0,1,.182,2.547,16.92,16.92,0,0,1-5.3,12.417,14.143,14.143,0,0,0-4.708,10.637q.007.317.008.636a22.359,22.359,0,0,1-7.6,17.074.623.623,0,0,1-.7.083.648.648,0,0,1-.386-.615c0-.325.007-.653.007-.981,0-15.9-5-24.225-9.939-24.225s-9.939,8.321-9.939,24.225c0,.328,0,.656.007.98a.648.648,0,0,1-.386.616.623.623,0,0,1-.7-.082,22.362,22.362,0,0,1-7.6-17.075q0-.32.008-.636a14.143,14.143,0,0,0-4.708-10.637,16.92,16.92,0,0,1-5.3-12.417c0-9.043,6.847-16.4,15.263-16.4a14.441,14.441,0,0,1,8.92,3.095,7.215,7.215,0,0,0,8.858,0,14.441,14.441,0,0,1,8.92-3.095,14.273,14.273,0,0,1,4.887.859,1.75,1.75,0,1,0,1.2-3.29,17.881,17.881,0,0,0-17.15,2.762,3.718,3.718,0,0,1-4.564,0,17.911,17.911,0,0,0-11.067-3.831c-10.346,0-18.763,8.927-18.763,19.9A20.429,20.429,0,0,0,38.308,70.8,10.646,10.646,0,0,1,41.9,78.78c-.006.241-.009.484-.009.727A25.547,25.547,0,0,0,50.74,99.266a4.112,4.112,0,0,0,2.644.97,4.186,4.186,0,0,0,1.8-.413A4.129,4.129,0,0,0,57.568,96c0-.307-.007-.617-.007-.927,0-12.651,3.813-20.725,6.439-20.725s6.439,8.074,6.439,20.725c0,.31,0,.62-.007.928a4.167,4.167,0,0,0,6.828,3.269,25.543,25.543,0,0,0,8.853-19.758c0-.243,0-.486-.009-.727A10.646,10.646,0,0,1,89.692,70.8,20.429,20.429,0,0,0,96.112,55.817Zm10.236,23.335A3.152,3.152,0,1,0,103.2,76,3.156,3.156,0,0,0,106.348,79.152ZM58.6,28.833a3.152,3.152,0,1,0-3.153-3.152A3.156,3.156,0,0,0,58.6,28.833ZM30.985,79.75A3.152,3.152,0,1,0,34.138,82.9,3.156,3.156,0,0,0,30.985,79.75ZM17.25,28.333a1.751,1.751,0,0,1,1.327-1.7l2.946-.734A6,6,0,0,0,25.9,21.522l.734-2.945a1.75,1.75,0,0,1,3.4,0l.735,2.945A6,6,0,0,0,35.144,25.9l2.946.734a1.751,1.751,0,0,1,0,3.4l-2.946.734a6,6,0,0,0-4.378,4.378l-.735,2.946a1.75,1.75,0,0,1-3.4,0L25.9,35.144a6,6,0,0,0-4.379-4.379l-2.945-.733A1.751,1.751,0,0,1,17.25,28.333Zm7.53,0a9.478,9.478,0,0,1,3.553,3.554,9.488,9.488,0,0,1,3.554-3.554,9.478,9.478,0,0,1-3.554-3.553A9.468,9.468,0,0,1,24.78,28.333Zm63.8,71.333a1.751,1.751,0,0,1,1.327-1.7l2.946-.734a6,6,0,0,0,4.378-4.378l.735-2.946a1.75,1.75,0,0,1,3.4,0l.734,2.945a6,6,0,0,0,4.379,4.379l2.945.733a1.751,1.751,0,0,1,0,3.4l-2.946.734a6,6,0,0,0-4.378,4.379l-.734,2.945a1.75,1.75,0,0,1-3.4,0l-.735-2.945a6,6,0,0,0-4.378-4.379l-2.946-.734A1.751,1.751,0,0,1,88.583,99.666Zm7.53,0a9.478,9.478,0,0,1,3.554,3.553,9.468,9.468,0,0,1,3.553-3.553,9.478,9.478,0,0,1-3.553-3.554A9.488,9.488,0,0,1,96.113,99.666Z" style="fill: rgb(26, 41, 84);"/>
</svg>