<?xml version="1.0" encoding="utf-8"?>
<svg xmlns="http://www.w3.org/2000/svg" width="128" height="128" viewBox="0 0 128 128">
  <title>PHONENDOSCOPE</title>
  <g>
    <path d="M116.59,29.84A13.57,13.57,0,1,0,97.37,42.182v6.493a1.745,1.745,0,0,0-1.5,1.725V82.723A20.4,20.4,0,0,1,55.4,86.347,36.933,36.933,0,0,0,84.764,50.4V20.065a6.577,6.577,0,0,0-6.57-6.569h-11.1a3.015,3.015,0,0,0-3.858-2.851l-6.843,1.987A4.357,4.357,0,0,0,53.266,16.8v2.45a4.357,4.357,0,0,0,3.126,4.164c7.078,2.014,6.941,2.109,7.694,2.109A3.027,3.027,0,0,0,67.1,22.5v-.331h7.869A1.129,1.129,0,0,1,76.1,23.292V48.65H72.677a1.75,1.75,0,0,0-1.75,1.75,22.841,22.841,0,1,1-45.681,0,1.75,1.75,0,0,0-1.75-1.75H20.078V23.292a1.129,1.129,0,0,1,1.127-1.128h7.869V22.5a3.025,3.025,0,0,0,3.013,3.023c.779,0,.793-.145,7.694-2.108a4.358,4.358,0,0,0,3.127-4.164V16.8a4.358,4.358,0,0,0-3.127-4.164l-6.844-1.987A3.015,3.015,0,0,0,29.08,13.5h-11.1a6.577,6.577,0,0,0-6.569,6.569V50.4a36.465,36.465,0,0,0,29.62,36,34.694,34.694,0,0,0,69.14-4.139V50.4a1.744,1.744,0,0,0-1.509-1.725V42.184A13.587,13.587,0,0,0,116.59,29.84ZM100.87,48.65v-5.4a13.332,13.332,0,0,0,4.29,0v5.4ZM92.95,29.84A10.065,10.065,0,1,1,99.7,39.358,10.081,10.081,0,0,1,92.95,29.84ZM63.6,21.857l-6.231-1.809a.839.839,0,0,1-.6-.8V16.8a.839.839,0,0,1,.6-.8L63.6,14.185Zm11.369-3.193H67.1V17h11.1a3.073,3.073,0,0,1,3.07,3.069V48.65H79.6V23.292A4.634,4.634,0,0,0,74.968,18.664ZM32.574,14.185l6.231,1.809a.84.84,0,0,1,.6.8v2.45a.84.84,0,0,1-.6.8l-6.231,1.809ZM17.978,17h11.1v1.668H21.205a4.632,4.632,0,0,0-4.627,4.628V48.65H14.909V20.065A3.073,3.073,0,0,1,17.978,17Zm88.691,65.261a31.193,31.193,0,0,1-62.286,2.506,1.749,1.749,0,0,0-1.474-1.59A32.978,32.978,0,0,1,14.954,52.15H21.8a26.341,26.341,0,0,0,52.565,0h6.848A33.4,33.4,0,0,1,53.171,83.19a1.749,1.749,0,0,0-1.476,1.9,23.9,23.9,0,0,0,47.672-2.368V52.15h7.3Z" style="fill: rgb(26, 41, 84);"/>
    <path d="M109.179,29.844a6.161,6.161,0,1,0-6.16,6.16A6.168,6.168,0,0,0,109.179,29.844Zm-8.822,0a2.661,2.661,0,1,1,2.662,2.66A2.665,2.665,0,0,1,100.357,29.844Z"/>
  </g>
</svg>