<?xml version="1.0" encoding="utf-8"?>
<svg version="1.1" id="Layer_1" xmlns="http://www.w3.org/2000/svg" x="0px" y="0px" viewBox="0 0 300 300" enable-background="new 0 0 300 300">
  <g>
    <g>
      <g>
        <path fill="#E5E5E4" d="M160.964,182.893v-22.877c-3.062,0.616-6.226,0.948-9.468,0.948h-2.992c-3.242,0-6.406-0.332-9.468-0.948 v22.877h-5.482L150,204.822l16.447-21.929H160.964z" style="fill-opacity: 0.54;"/>
      </g>
      <g>
        <g>
          <path fill="#EFEFEF" d="M144.518,182.893H150v-21.929h-1.496c-3.242,0-6.406-0.332-9.468-0.948v22.877h-5.482L150,204.822 l5.482-7.308L144.518,182.893z" style="fill-opacity: 0.54;"/>
        </g>
      </g>
      <g>
        <path fill="#7FD3B9" d="M174.501,182.893h-8.055L150,204.822l-16.447-21.929h-8.055c-31.885,0-57.732,25.848-57.732,57.735 v40.945h164.467v-40.945C232.234,208.741,206.386,182.893,174.501,182.893z" style="fill-opacity: 0.11;"/>
      </g>
      <g>
        <path fill="#BBEAD9" d="M133.66,183.033l-0.107-0.139h-8.055c-31.885,0-57.732,25.848-57.732,57.735v40.945h10.965v-40.945 C78.731,209.689,103.085,184.505,133.66,183.033z" style="fill-opacity: 0.54;"/>
      </g>
      <g>
        <path fill="#E5E5E4" d="M100.66,113.123c0,26.421,21.42,47.841,47.844,47.841h2.992c26.424,0,47.844-21.42,47.844-47.841V78.731 h-98.68V113.123z" style="fill-opacity: 0.54;"/>
      </g>
      <g>
        <path fill="#EFEFEF" d="M111.624,113.123V78.731H100.66v34.392c0,26.421,21.42,47.841,47.844,47.841h2.992 c1.347,0,2.669-0.091,3.986-0.203C130.93,158.732,111.624,138.201,111.624,113.123z" style="fill-opacity: 0.54;"/>
      </g>
      <g>
        <path fill="#7FD3B9" d="M151.646,18.426h-3.293c-29.066,0-53.176,23.562-53.176,52.627v7.677h109.645v-7.677 C204.822,41.988,180.712,18.426,151.646,18.426z" style="fill-opacity: 0.17;"/>
      </g>
      <g>
        <path fill="#BBEAD9" d="M155.482,18.619c-1.271-0.091-2.543-0.193-3.836-0.193h-3.293c-29.066,0-53.176,23.562-53.176,52.627 v7.677h10.965v-7.677C106.142,43.284,128.167,20.589,155.482,18.619z" style="fill-opacity: 0.54;"/>
      </g>
      <g>
        <path fill="#E5E5E4" d="M197.97,248.68c-1.044-6.526-5.515-10.964-12.335-10.964s-11.291,4.438-12.335,10.964 c-5.488,0-8.223,4.363-8.223,8.454c0,4.406,3.581,7.993,7.999,7.993c2.056,0,23.064,0,25.12,0c4.417,0,7.999-3.587,7.999-7.993 C206.193,253.044,203.457,248.68,197.97,248.68z" style="fill-opacity: 0.54;"/>
      </g>
      <g>
        <path fill="#EFEFEF" d="M170.558,257.134c0-4.09,2.736-8.454,8.223-8.454c0.897-5.6,4.331-9.642,9.594-10.68 c-0.87-0.172-1.775-0.284-2.741-0.284c-6.82,0-11.291,4.438-12.335,10.964c-5.488,0-8.223,4.363-8.223,8.454 c0,4.406,3.581,7.993,7.999,7.993c0.583,0,2.714,0,5.482,0C174.14,265.127,170.558,261.54,170.558,257.134z" style="fill-opacity: 0.54;"/>
      </g>
      <g>
        <path fill="#E5E5E4" d="M210.305,234.975c0,4.54-2.452,8.223-5.482,8.223c-3.03,0-5.482-3.684-5.482-8.223 c0-4.54,2.452-8.223,5.482-8.223C207.852,226.751,210.305,230.435,210.305,234.975z" style="fill-opacity: 0.54;"/>
      </g>
      <g>
        <path fill="#E5E5E4" d="M171.929,234.975c0,4.54-2.452,8.223-5.482,8.223c-3.03,0-5.482-3.684-5.482-8.223 c0-4.54,2.452-8.223,5.482-8.223C169.477,226.751,171.929,230.435,171.929,234.975z" style="fill-opacity: 0.54;"/>
      </g>
      <g>
        <path fill="#E5E5E4" d="M182.893,224.01c0,4.54-2.452,8.223-5.482,8.223c-3.03,0-5.482-3.684-5.482-8.223 c0-4.54,2.452-8.223,5.482-8.223C180.441,215.787,182.893,219.471,182.893,224.01z" style="fill-opacity: 0.54;"/>
      </g>
      <g>
        <path fill="#E5E5E4" d="M199.34,224.01c0,4.54-2.452,8.223-5.482,8.223c-3.03,0-5.482-3.684-5.482-8.223 c0-4.54,2.452-8.223,5.482-8.223C196.888,215.787,199.34,219.471,199.34,224.01z" style="fill-opacity: 0.54;"/>
      </g>
      <g>
        <polygon fill="#FE6F80" points="166.447,45.837 155.482,45.837 155.482,34.873 144.518,34.873 144.518,45.837 133.553,45.837 &#10;&#9;&#9;&#9;&#9;133.553,56.802 144.518,56.802 144.518,67.766 155.482,67.766 155.482,56.802 166.447,56.802 &#9;&#9;&#9;" style="fill-opacity: 0.54;"/>
      </g>
      <g>
        <path fill="#E5E5E4" d="M199.34,78.731v32.894c8.074,0,16.447-6.548,16.447-14.621v-3.651 C215.787,85.278,207.414,78.731,199.34,78.731z" style="fill-opacity: 0.54;"/>
      </g>
      <g>
        <path fill="#E5E5E4" d="M100.66,78.731v32.894c-8.074,0-16.447-6.548-16.447-14.621v-3.651 C84.213,85.278,92.586,78.731,100.66,78.731z" style="fill-opacity: 0.54;"/>
      </g>
      <g>
        <path fill="#EFEFEF" d="M89.695,97.003v-3.651c0-6.226,4.987-11.505,10.965-13.615v-1.007c-8.074,0-16.447,6.547-16.447,14.621 v3.651c0,8.074,8.373,14.621,16.447,14.621v-1.007C94.683,108.508,89.695,103.23,89.695,97.003z" style="fill-opacity: 0.54;"/>
      </g>
      <g>
        <polygon fill="#FFA1AA" points="144.518,34.873 144.518,45.837 133.553,45.837 133.553,56.802 144.518,56.802 144.518,67.766 &#10;&#9;&#9;&#9;&#9;150,67.766 150,34.873 &#9;&#9;&#9;" style="fill-opacity: 0.54;"/>
      </g>
      <g>
        <path fill="#EFEFEF" d="M204.822,234.975c0-3.035,1.108-5.659,2.741-7.083c-0.809-0.707-1.737-1.14-2.741-1.14 c-3.03,0-5.482,3.684-5.482,8.223c0,4.54,2.452,8.223,5.482,8.223c1.004,0,1.932-0.434,2.741-1.14 C205.93,240.634,204.822,238.01,204.822,234.975z" style="fill-opacity: 0.54;"/>
      </g>
      <g>
        <path fill="#EFEFEF" d="M166.447,234.975c0-3.035,1.108-5.659,2.741-7.083c-0.809-0.707-1.737-1.14-2.741-1.14 c-3.03,0-5.482,3.684-5.482,8.223c0,4.54,2.452,8.223,5.482,8.223c1.004,0,1.932-0.434,2.741-1.14 C167.555,240.634,166.447,238.01,166.447,234.975z" style="fill-opacity: 0.54;"/>
      </g>
      <g>
        <path fill="#EFEFEF" d="M193.858,224.01c0-3.036,1.108-5.659,2.741-7.083c-0.809-0.707-1.737-1.14-2.741-1.14 c-3.03,0-5.482,3.684-5.482,8.223c0,4.54,2.452,8.223,5.482,8.223c1.004,0,1.932-0.434,2.741-1.14 C194.966,229.669,193.858,227.046,193.858,224.01z" style="fill-opacity: 0.54;"/>
      </g>
      <g>
        <path fill="#EFEFEF" d="M177.411,224.01c0-3.036,1.108-5.659,2.741-7.083c-0.809-0.707-1.737-1.14-2.741-1.14 c-3.03,0-5.482,3.684-5.482,8.223c0,4.54,2.452,8.223,5.482,8.223c1.004,0,1.933-0.434,2.741-1.14 C178.519,229.669,177.411,227.046,177.411,224.01z" style="fill-opacity: 0.54;"/>
      </g>
    </g>
    <g>
      <g>
        <path d="M151.496,166.447h-2.993c-29.403,0-53.326-23.921-53.326-53.323V78.731c0-3.03,2.455-5.482,5.482-5.482 h98.68c3.028,0,5.482,2.452,5.482,5.482v34.393C204.822,142.526,180.899,166.447,151.496,166.447z M106.142,84.213v28.91 c0,23.358,19.003,42.359,42.362,42.359h2.993c23.358,0,42.362-19.001,42.362-42.359v-28.91H106.142z" style="fill: rgb(26, 41, 84);"/>
      </g>
      <g>
        <path d="M150,210.305c-1.727,0-3.352-0.814-4.385-2.195l-16.447-21.929c-1.247-1.66-1.448-3.882-0.519-5.739 c0.929-1.858,2.827-3.03,4.904-3.03v-17.394c0-1.644,0.736-3.202,2.008-4.24c1.271-1.044,2.939-1.456,4.556-1.135 c2.77,0.557,5.595,0.841,8.387,0.841h2.993c2.792,0,5.616-0.284,8.387-0.841c1.614-0.321,3.282,0.091,4.556,1.135 c1.271,1.039,2.008,2.597,2.008,4.24v17.394c2.077,0,3.975,1.173,4.904,3.03c0.929,1.858,0.728,4.079-0.519,5.739l-16.447,21.929 C153.351,209.491,151.727,210.305,150,210.305z M143.137,186.534l6.863,9.15l6.863-9.15c-0.859-0.969-1.381-2.243-1.381-3.641 v-16.597c-1.33,0.102-2.661,0.15-3.986,0.15h-2.993c-1.325,0-2.655-0.048-3.986-0.15v16.597 C144.518,184.291,143.996,185.565,143.137,186.534z" style="fill: rgb(26, 41, 84);"/>
      </g>
      <g transform="matrix(1, 0, 0, 1, 1, 0)">
        <path d="M197.97,248.68c-1.044-6.526-5.515-10.964-12.335-10.964s-11.291,4.438-12.335,10.964 c-5.488,0-8.223,4.363-8.223,8.454c0,4.406,3.581,7.993,7.999,7.993c2.056,0,23.064,0,25.12,0c4.417,0,7.999-3.587,7.999-7.993 C206.193,253.044,203.457,248.68,197.97,248.68z" style="fill: rgb(26, 41, 84); fill-opacity: 0.25;"/>
      </g>
      <g>
        <path d="M210.305,234.975c0,4.54-2.452,8.223-5.482,8.223c-3.03,0-5.482-3.684-5.482-8.223 c0-4.54,2.452-8.223,5.482-8.223C207.852,226.751,210.305,230.435,210.305,234.975z" style="fill: rgb(26, 41, 84); fill-opacity: 0.25;"/>
      </g>
      <g>
        <path d="M171.929,234.975c0,4.54-2.452,8.223-5.482,8.223c-3.03,0-5.482-3.684-5.482-8.223 c0-4.54,2.452-8.223,5.482-8.223C169.477,226.751,171.929,230.435,171.929,234.975z" style="fill: rgb(26, 41, 84); fill-opacity: 0.25;"/>
      </g>
      <g>
        <path d="M182.893,224.01c0,4.54-2.452,8.223-5.482,8.223c-3.03,0-5.482-3.684-5.482-8.223 c0-4.54,2.452-8.223,5.482-8.223C180.441,215.787,182.893,219.471,182.893,224.01z" style="fill: rgb(26, 41, 84); fill-opacity: 0.25;"/>
      </g>
      <g>
        <path d="M199.34,224.01c0,4.54-2.452,8.223-5.482,8.223c-3.03,0-5.482-3.684-5.482-8.223 c0-4.54,2.452-8.223,5.482-8.223C196.888,215.787,199.34,219.471,199.34,224.01z" style="fill: rgb(26, 41, 84); fill-opacity: 0.25;"/>
      </g>
      <g>
        <polygon points="166.447,45.837 155.482,45.837 155.482,34.873 144.518,34.873 144.518,45.837 133.553,45.837 &#10;&#9;&#9;&#9;&#9;133.553,56.802 144.518,56.802 144.518,67.766 155.482,67.766 155.482,56.802 166.447,56.802 &#9;&#9;&#9;" style="fill: rgb(26, 41, 84);"/>
      </g>
      <g>
        <path d="M232.234,287.056H106.142c-3.027,0-5.482-2.452-5.482-5.482c0-3.03,2.455-5.482,5.482-5.482h120.609 v-35.463c0-28.814-23.439-52.253-52.25-52.253h-5.314l-14.803,19.734c-2.066,2.762-6.703,2.762-8.769,0l-14.803-19.734h-5.314 c-28.811,0-52.25,23.439-52.25,52.253v35.463h10.965c3.028,0,5.482,2.452,5.482,5.482c0,3.03-2.455,5.482-5.482,5.482H67.766 c-3.028,0-5.482-2.452-5.482-5.482v-40.946c0-34.858,28.359-63.217,63.214-63.217h8.055c1.727,0,3.351,0.814,4.385,2.195 L150,195.684l12.062-16.077c1.033-1.381,2.658-2.195,4.385-2.195h8.055c34.856,0,63.215,28.359,63.215,63.217v40.946 C237.716,284.604,235.261,287.056,232.234,287.056z" style="fill: rgb(26, 41, 84);"/>
      </g>
      <g>
        <path d="M204.822,84.213H95.177c-3.027,0-5.482-2.452-5.482-5.482v-7.677c0-32.042,26.314-58.11,58.658-58.11 h3.293c11.353,0,22.424,3.298,32.015,9.53c2.54,1.654,3.26,5.049,1.609,7.586c-1.649,2.543-5.048,3.26-7.584,1.612 c-7.811-5.081-16.816-7.763-26.041-7.763h-3.293c-26.298,0-47.694,21.147-47.694,47.145v2.195h98.68v-2.195 c0-9.026-2.663-17.849-7.699-25.505c-1.665-2.532-0.961-5.932,1.569-7.597c2.535-1.665,5.932-0.958,7.592,1.569 c6.216,9.455,9.503,20.36,9.503,31.534v7.677C210.305,81.761,207.85,84.213,204.822,84.213z" style="fill: rgb(26, 41, 84);"/>
      </g>
      <g>
        <path d="M199.34,117.106c-3.027,0-5.482-2.452-5.482-5.482V78.731c0-3.03,2.455-5.482,5.482-5.482 c10.373,0,21.929,8.256,21.929,20.103v3.651C221.269,108.851,209.713,117.106,199.34,117.106z M204.822,85.653v19.049 c3.159-1.702,5.482-4.679,5.482-7.699v-3.651C210.305,90.332,207.981,87.356,204.822,85.653z" style="fill: rgb(26, 41, 84);"/>
      </g>
      <g>
        <path d="M100.66,117.106c-10.373,0-21.929-8.256-21.929-20.103v-3.651c0-11.848,11.556-20.103,21.929-20.103 c3.028,0,5.482,2.452,5.482,5.482v32.894C106.142,114.655,103.687,117.106,100.66,117.106z M95.177,85.653 c-3.159,1.702-5.482,4.679-5.482,7.699v3.651c0,3.02,2.324,5.996,5.482,7.699V85.653z" style="fill: rgb(26, 41, 84);"/>
      </g>
    </g>
  </g>
</svg>