<?xml version="1.0" encoding="utf-8"?>
<!-- Generator: Adobe Illustrator 24.3.0, SVG Export Plug-In . SVG Version: 6.00 Build 0)  -->
<svg version="1.1" id="Layer_1" xmlns="http://www.w3.org/2000/svg" xmlns:xlink="http://www.w3.org/1999/xlink" x="0px" y="0px"
	 viewBox="0 0 300 300" enable-background="new 0 0 300 300" xml:space="preserve">
<g>
	<g>
		<g>
			<polygon fill="#E5E5E4" points="160.964,95.097 73.248,144.437 18.425,106.062 160.964,29.31 			"/>
		</g>
		<g>
			<polygon fill="#EFEFEF" points="40.354,106.062 160.964,41.121 160.964,29.31 18.425,106.062 73.248,144.437 85.406,137.6 			"/>
		</g>
		<g>
			<path fill="#FFC67B" d="M221.269,144.437c-24.515-9.803-44.645-6.494-68.228-44.88L84.212,138.27v17.132
				c0,0,0,16.447,10.965,27.411c5.482,5.482,5.482,27.411,5.482,38.376v38.376c0,0-16.447,5.482-16.447,21.929h38.376v-60.305
				c0,0,10.964,38.376,43.858,38.376c0,0-32.894,0-32.894,21.929h60.305c0,0,65.787,5.482,65.787-49.34
				S248.68,155.402,221.269,144.437z"/>
		</g>
		<g>
			<path fill="#FFD39F" d="M111.624,259.565v-38.376c0-10.965,0-32.894-5.482-38.376c-10.965-10.965-10.965-27.411-10.965-27.411
				V138.27l60.808-34.2c-0.98-1.467-1.954-2.902-2.945-4.513L84.212,138.27v17.132c0,0,0,16.447,10.965,27.411
				c5.482,5.482,5.482,27.411,5.482,38.376v38.376c0,0-16.447,5.482-16.447,21.929h10.965
				C95.177,265.047,111.624,259.565,111.624,259.565z"/>
		</g>
		<g>
			<path fill="#FFC67B" d="M106.077,58.863c-3.255-8.057-5.407-20.649-5.418-40.383c-1.681-0.091-3.496-0.134-5.482-0.134
				c-16.447,0-38.376,0-38.376,21.929S45.837,67.686,34.872,67.686c-10.965,0-10.965,16.447-10.965,16.447
				c0,9.011,0.069,14.637,1.868,17.973L106.077,58.863z"/>
		</g>
		<g>
			<path fill="#FFD39F" d="M34.872,84.133c0,0,0-16.447,10.965-16.447c10.964,0,21.929-5.482,21.929-27.411
				c0-18.663,15.885-21.437,30.752-21.849c-1.092-0.032-2.131-0.08-3.341-0.08c-16.447,0-38.376,0-38.376,21.929
				S45.837,67.686,34.872,67.686c-10.965,0-10.965,16.447-10.965,16.447c0,9.011,0.069,14.637,1.868,17.973l9.546-5.14
				C34.905,93.754,34.872,89.567,34.872,84.133z"/>
		</g>
		<g>
			<path fill="#FFDA88" d="M138.665,41.319c-1.783-13.925-11.628-22.973-21.559-22.973c-10.965,0-16.447,0-16.447,0
				c0,19.814,2.152,32.438,5.418,40.523L138.665,41.319z"/>
		</g>
		<g>
			<path fill="#FFDA88" d="M40.354,73.168V67.15c-1.793,0.365-3.635,0.536-5.482,0.536c-10.965,0-10.965,16.447-10.965,16.447
				c0,1.997,0.005,3.801,0.032,5.477C33.009,89.594,40.354,82.243,40.354,73.168z"/>
		</g>
		<g>
			<path fill="#7FD3B9" d="M78.73,56.722c0,3.03-2.452,5.482-5.482,5.482l0,0c-3.03,0-5.482-2.452-5.482-5.482v-5.482
				c0-3.03,2.452-5.482,5.482-5.482l0,0c3.03,0,5.482,2.452,5.482,5.482V56.722z"/>
		</g>
		<g>
			<path fill="#BBEAD9" d="M73.248,56.722v-5.482c0-2.008,1.13-3.689,2.741-4.642c-0.819-0.487-1.719-0.84-2.741-0.84
				c-3.03,0-5.482,2.452-5.482,5.482v5.482c0,3.03,2.452,5.482,5.482,5.482c1.022,0,1.922-0.354,2.741-0.84
				C74.378,60.41,73.248,58.729,73.248,56.722z"/>
		</g>
		<g>
			<path fill="#FFC67B" d="M281.573,204.742c-3.03,0-5.482,2.452-5.482,5.482c0,11.644-2.634,19.739-7.827,24.07
				c-2.94,2.452-6.301,3.277-8.893,3.512c-0.364,4.042-1.124,7.704-2.201,11.039c0.139,0,0.257,0.011,0.402,0.011
				c4.428,0,11.398-0.964,17.549-6.002c7.919-6.494,11.934-17.469,11.934-32.631C287.056,207.194,284.603,204.742,281.573,204.742z"
				/>
		</g>
	</g>
	<g>
		<g>
			<path fill="#161616" d="M25.782,107.588c-1.949,0-3.839-1.044-4.829-2.88c-2.409-4.465-2.527-10.424-2.527-20.575
				c0-7.586,3.437-21.929,16.447-21.929c7.062,0,16.447-2.275,16.447-21.929c0-27.411,27.454-27.411,43.858-27.411
				c2.093,0,4.005,0.048,5.777,0.139c2.907,0.161,5.188,2.564,5.188,5.471c0.011,17.218,1.697,30.115,5.016,38.333
				c1.049,2.591-0.021,5.557-2.479,6.885l-80.301,43.242C27.548,107.379,26.66,107.588,25.782,107.588z M95.177,23.828
				c-22.288,0-32.894,2.463-32.894,16.447c0,28.621-17.175,32.893-27.411,32.893c-5.177,0-5.482,10.874-5.482,10.981
				c0,3.507,0,6.912,0.171,9.69L99.364,56.25c-2.484-8.24-3.844-18.936-4.128-32.422C95.214,23.828,95.198,23.828,95.177,23.828z"/>
		</g>
		<g>
			<path fill="#161616" d="M106.077,64.351c-0.626,0-1.258-0.107-1.863-0.327c-1.467-0.53-2.634-1.654-3.218-3.1
				c-3.919-9.69-5.819-23.621-5.819-42.578c0-3.03,2.452-5.482,5.482-5.482h16.447c13.363,0,24.97,11.934,26.999,27.759
				c0.289,2.249-0.841,4.449-2.838,5.525l-32.588,17.55C107.871,64.131,106.977,64.351,106.077,64.351z M106.2,23.828
				c0.252,11.088,1.274,20.157,3.062,27.101l23.267-12.533c-2.5-9.487-9.455-14.568-15.424-14.568H106.2z"/>
		</g>
		<g>
			<path fill="#161616" d="M23.94,95.092c-2.993,0-5.434-2.399-5.482-5.397c-0.027-1.702-0.032-3.534-0.032-5.563
				c0-7.586,3.437-21.929,16.447-21.929c1.52,0,2.998-0.145,4.39-0.428c1.617-0.31,3.287,0.086,4.561,1.13
				c1.274,1.044,2.013,2.602,2.013,4.245v6.018c0,12.067-9.819,21.902-21.886,21.924C23.945,95.092,23.945,95.092,23.94,95.092z
				 M34.872,73.168c-3.967,0-5.075,6.392-5.375,9.423C32.715,80.679,34.872,77.168,34.872,73.168z"/>
		</g>
		<g>
			<path fill="#161616" d="M78.73,56.722c0,3.03-2.452,5.482-5.482,5.482l0,0c-3.03,0-5.482-2.452-5.482-5.482v-5.482
				c0-3.03,2.452-5.482,5.482-5.482l0,0c3.03,0,5.482,2.452,5.482,5.482V56.722z"/>
		</g>
		<g>
			<path fill="#161616" d="M281.573,204.742c-3.03,0-5.482,2.452-5.482,5.482c0,11.644-2.634,19.739-7.827,24.07
				c-2.94,2.452-6.301,3.277-8.893,3.512c-0.364,4.042-1.124,7.704-2.201,11.039c0.139,0,0.257,0.011,0.402,0.011
				c4.428,0,11.398-0.964,17.549-6.002c7.919-6.494,11.934-17.469,11.934-32.631C287.056,207.194,284.603,204.742,281.573,204.742z"
				/>
		</g>
		<g>
			<path fill="#161616" d="M73.248,149.92c-1.103,0-2.206-0.332-3.143-0.99l-13.582-9.508c-2.484-1.735-3.084-5.156-1.349-7.635
				c1.74-2.484,5.161-3.084,7.634-1.349l10.756,7.533l81.918-46.08V38.487L28.855,106.672l14.975,10.483
				c2.484,1.735,3.084,5.156,1.349,7.634c-1.735,2.484-5.166,3.084-7.634,1.349l-22.261-15.585
				c-1.558-1.092-2.441-2.912-2.329-4.813c0.107-1.901,1.199-3.603,2.875-4.508l142.539-76.751c1.692-0.905,3.758-0.873,5.407,0.123
				c1.66,0.99,2.672,2.779,2.672,4.706v65.787c0,1.981-1.071,3.807-2.795,4.776l-87.716,49.34
				C75.1,149.684,74.174,149.92,73.248,149.92z"/>
		</g>
		<g>
			<path fill="#161616" d="M198.863,287.137c-3.137,0-5.134-0.15-5.461-0.182l-59.85,0.021c-3.03,0-5.482-2.452-5.482-5.482
				c0,3.03-2.452,5.482-5.482,5.482H84.212c-3.03,0-5.482-2.452-5.482-5.482c0-14.915,10.595-22.459,16.447-25.484v-34.821
				c0-25.313-2.109-32.733-3.876-34.5c-12.426-12.426-12.571-30.522-12.571-31.287V138.27c0-1.981,1.071-3.807,2.795-4.781
				l68.828-38.713c2.564-1.44,5.819-0.6,7.356,1.911c17.164,27.936,31.962,32.24,49.099,37.23
				c5.273,1.536,10.724,3.121,16.495,5.429c3.796,1.515,7.367,3.287,10.611,5.257c2.586,1.574,3.41,4.947,1.836,7.533
				c-1.574,2.586-4.947,3.416-7.533,1.836c-2.725-1.654-5.745-3.153-8.984-4.444c-5.279-2.109-10.472-3.624-15.489-5.086
				c-17.608-5.123-34.28-9.974-52.542-37.562l-61.509,34.596v13.925c0,0.123,0.198,14.375,9.358,23.535
				c5.905,5.9,7.088,20.542,7.088,42.252v38.376c0,2.361-1.51,4.454-3.748,5.198c-0.407,0.145-8.941,3.196-11.784,11.248h26.496
				v-54.823c0-2.73,2.008-5.038,4.711-5.423c2.725-0.38,5.279,1.285,6.039,3.908c0.407,1.403,10.295,34.409,38.59,34.409
				c0.011-0.005,0.037-0.005,0.043,0c0.011,0,0.016,0,0.027,0l0,0c0.021-0.005,0.053,0,0.08,0l0,0
				c2.961,0.08,5.332,2.506,5.332,5.482c0,3.025-2.447,5.477-5.472,5.482l0,0c-0.241,0-20.885,0.209-26.191,10.965h53.591
				c0.744,0.043,31.218,2.302,48.441-13.583c7.87-7.26,11.864-17.448,11.864-30.275c0-31.721-3.705-51.637-12.019-64.588
				c-1.633-2.548-0.894-5.937,1.654-7.576c2.548-1.644,5.937-0.894,7.576,1.654c9.514,14.819,13.754,36.566,13.754,70.509
				c0,16.04-5.193,28.953-15.435,38.376C233.598,285.338,209.581,287.137,198.863,287.137z M128.07,244.151v37.342
				c0-11.521,7.088-18.535,15.719-22.582C137.172,254.96,132.005,249.569,128.07,244.151z"/>
		</g>
	</g>
</g>
</svg>
