<?xml version="1.0" encoding="utf-8"?>
<svg version="1.1" id="Layer_1" xmlns="http://www.w3.org/2000/svg" x="0px" y="0px" viewBox="0 0 300 300" enable-background="new 0 0 300 300">
  <g>
    <g>
      <g>
        <path fill="#E5E5E4" d="M254.162,133.553V51.32l-54.822-32.893h-49.34h-49.298L45.836,51.32v82.234 c0,0-5.482,148.021,104.163,148.021S254.162,133.553,254.162,133.553z" style="fill-opacity: 0;"/>
      </g>
      <g>
        <path fill="#EFEFEF" d="M62.283,133.553V51.32l54.865-32.893h-16.447L45.836,51.32v82.234c0,0-5.482,148.021,104.163,148.021 c2.832,0,5.541-0.158,8.223-0.351C57.128,273.964,62.283,133.553,62.283,133.553z"/>
      </g>
      <g>
        <polygon fill="#FE6F80" points="166.446,51.32 155.481,51.32 155.481,40.355 144.517,40.355 144.517,51.32 133.552,51.32 &#10;&#9;&#9;&#9;&#9;133.552,62.284 144.517,62.284 144.517,73.249 155.481,73.249 155.481,62.284 166.446,62.284 &#9;&#9;&#9;"/>
      </g>
      <g>
        <path fill="#7FD3B9" d="M186.038,180.712C183.241,163.307,168.196,150,149.999,150s-33.242,13.307-36.039,30.712 c-10.563,1.269-18.784,9.249-18.784,20.148c0,11.773,9.548,20.409,21.319,20.409c5.487,0,61.52,0,67.007,0 c11.77,0,21.319-8.636,21.319-20.409C204.822,189.961,196.601,181.981,186.038,180.712z" style="fill-opacity: 0;"/>
      </g>
      <g>
        <path fill="#BBEAD9" d="M106.141,200.861c0-10.9,8.221-18.88,18.784-20.148c2.511-15.62,14.894-27.904,30.556-30.267 c-1.791-0.271-3.614-0.445-5.482-0.445c-18.197,0-33.242,13.307-36.039,30.712c-10.563,1.269-18.784,9.249-18.784,20.148 c0,11.773,9.548,20.409,21.319,20.409c1.287,0,5.418,0,10.965,0C115.69,221.269,106.141,212.634,106.141,200.861z"/>
      </g>
      <g>
        <ellipse cx="95.177" cy="150" rx="10.965" ry="16.447" style="fill-opacity: 0; fill: rgb(26, 41, 84);"/>
      </g>
      <g>
        <path fill="#BBEAD9" d="M89.694,150c0-7.653,3.504-14.03,8.223-15.863c-0.88-0.343-1.788-0.583-2.741-0.583 c-6.052,0-10.965,7.364-10.965,16.447s4.912,16.447,10.965,16.447c0.953,0,1.861-0.241,2.741-0.583 C93.199,164.03,89.694,157.653,89.694,150z"/>
      </g>
      <g>
        <ellipse fill="#7FD3B9" cx="128.07" cy="117.107" rx="10.965" ry="16.447" style="fill-opacity: 0;"/>
      </g>
      <g>
        <ellipse fill="#7FD3B9" cx="171.928" cy="117.107" rx="10.965" ry="16.447" style="fill-opacity: 0;"/>
      </g>
      <g>
        <ellipse fill="#7FD3B9" cx="204.822" cy="150" rx="10.965" ry="16.447" style="fill-opacity: 0;"/>
      </g>
      <g>
        <path fill="#BBEAD9" d="M199.339,150c0-7.653,3.504-14.03,8.223-15.863c-0.881-0.343-1.788-0.583-2.741-0.583 c-6.052,0-10.964,7.364-10.964,16.447s4.912,16.447,10.964,16.447c0.953,0,1.861-0.241,2.741-0.583 C202.844,164.03,199.339,157.653,199.339,150z"/>
      </g>
      <g>
        <path fill="#BBEAD9" d="M166.446,117.107c0-7.653,3.504-14.03,8.223-15.863c-0.88-0.343-1.788-0.583-2.741-0.583 c-6.052,0-10.965,7.364-10.965,16.447c0,9.082,4.912,16.447,10.965,16.447c0.953,0,1.861-0.241,2.741-0.583 C169.95,131.136,166.446,124.76,166.446,117.107z"/>
      </g>
      <g>
        <path fill="#BBEAD9" d="M122.588,117.107c0-7.653,3.504-14.03,8.223-15.863c-0.88-0.343-1.788-0.583-2.741-0.583 c-6.052,0-10.965,7.364-10.965,16.447c0,9.082,4.912,16.447,10.965,16.447c0.953,0,1.861-0.241,2.741-0.583 C126.092,131.136,122.588,124.76,122.588,117.107z"/>
      </g>
    </g>
    <g>
      <g>
        <polygon points="166.446,51.32 155.481,51.32 155.481,40.355 144.517,40.355 144.517,51.32 133.552,51.32 &#10;&#9;&#9;&#9;&#9;133.552,62.284 144.517,62.284 144.517,73.249 155.481,73.249 155.481,62.284 166.446,62.284 &#9;&#9;&#9;" style="fill: rgb(26, 41, 84);"/>
      </g>
      <g>
        <path d="M95.177,171.929c-9.222,0-16.447-9.631-16.447-21.929c0-12.298,7.225-21.929,16.447-21.929 c9.222,0,16.447,9.631,16.447,21.929C111.623,162.298,104.399,171.929,95.177,171.929z M95.177,139.036 c-2.182,0-5.482,4.374-5.482,10.964s3.301,10.965,5.482,10.965c2.182,0,5.482-4.374,5.482-10.965S97.358,139.036,95.177,139.036z " style="fill: rgb(26, 41, 84);"/>
      </g>
      <g>
        <path d="M128.07,139.036c-9.222,0-16.447-9.631-16.447-21.929s7.225-21.929,16.447-21.929 s16.447,9.631,16.447,21.929S137.292,139.036,128.07,139.036z M128.07,106.142c-2.182,0-5.482,4.374-5.482,10.965 s3.3,10.964,5.482,10.964s5.482-4.374,5.482-10.964S130.252,106.142,128.07,106.142z" style="fill: rgb(26, 41, 84);"/>
      </g>
      <g>
        <path d="M171.928,139.036c-9.222,0-16.447-9.631-16.447-21.929s7.225-21.929,16.447-21.929 c9.222,0,16.447,9.631,16.447,21.929S181.15,139.036,171.928,139.036z M171.928,106.142c-2.182,0-5.482,4.374-5.482,10.965 s3.301,10.964,5.482,10.964c2.182,0,5.482-4.374,5.482-10.964S174.11,106.142,171.928,106.142z" style="fill: rgb(26, 41, 84);"/>
      </g>
      <g>
        <path d="M204.822,171.929c-9.222,0-16.447-9.631-16.447-21.929c0-12.298,7.225-21.929,16.447-21.929 c9.222,0,16.447,9.631,16.447,21.929C221.268,162.298,214.043,171.929,204.822,171.929z M204.822,139.036 c-2.182,0-5.482,4.374-5.482,10.964s3.301,10.965,5.482,10.965c2.182,0,5.482-4.374,5.482-10.965 S207.003,139.036,204.822,139.036z" style="fill: rgb(26, 41, 84);"/>
      </g>
      <g>
        <path d="M149.999,287.056c-28.372,0-51.915-9.503-69.979-28.246c-42.185-43.775-39.784-122.146-39.663-125.46 l-0.003-82.03c0-1.927,1.012-3.71,2.663-4.703l54.865-32.893c0.851-0.509,1.826-0.779,2.819-0.779h98.638 c0.993,0,1.967,0.27,2.822,0.782l54.822,32.893c1.652,0.99,2.661,2.776,2.661,4.701v54.822c0,3.028-2.455,5.482-5.482,5.482 c-3.028,0-5.482-2.455-5.482-5.482V54.425l-50.858-30.516H102.22L51.319,54.425v79.129c-0.032,0.966-2.326,77.292,36.622,117.676 c15.914,16.498,36.791,24.863,62.058,24.863c25.28,0,46.168-8.373,62.082-24.89c38.986-40.456,36.63-116.68,36.601-117.445 l-0.003-5.686c0-3.027,2.455-5.482,5.482-5.482c3.027,0,5.482,2.455,5.482,5.482v5.482c0.118,3.111,2.519,81.482-39.666,125.257 C201.915,277.553,178.371,287.056,149.999,287.056z" style="fill: rgb(26, 41, 84);"/>
      </g>
      <g>
        <path d="M183.503,226.751h-44.468c-3.028,0-5.482-2.455-5.482-5.482c0-3.027,2.455-5.482,5.482-5.482h44.468 c9.029,0,15.836-6.417,15.836-14.926c0-7.672-5.739-13.719-13.954-14.707c-2.431-0.292-4.371-2.158-4.76-4.572 c-2.431-15.124-15.312-26.1-30.626-26.1s-28.196,10.975-30.626,26.1c-0.388,2.415-2.329,4.28-4.759,4.572 c-8.215,0.988-13.954,7.035-13.954,14.707c0,8.51,6.807,14.926,15.836,14.926h0.61c3.028,0,5.482,2.455,5.482,5.482 c0,3.028-2.455,5.482-5.482,5.482h-0.61c-15.028,0-26.801-11.371-26.801-25.891c0-11.875,8.052-21.782,19.646-24.836 c4.717-18.473,21.241-31.507,40.659-31.507s35.942,13.034,40.659,31.507c11.594,3.054,19.646,12.962,19.646,24.836 C210.304,215.38,198.531,226.751,183.503,226.751z" style="fill: rgb(26, 41, 84);"/>
      </g>
    </g>
  </g>
</svg>