<?xml version="1.0" encoding="utf-8"?>
<svg version="1.1" id="Layer_1" xmlns="http://www.w3.org/2000/svg" x="0px" y="0px" viewBox="0 0 300 300" enable-background="new 0 0 300 300">
  <g>
    <g>
      <g>
        <rect x="243.198" y="29.391" fill="#FFC67B" width="16.447" height="252.183" style="fill-opacity: 0;"/>
      </g>
      <g>
        <polyline fill="#FFDA88" points="40.355,78.731 40.355,281.574 243.198,281.574 243.198,29.391 177.411,29.391 177.411,40.355 &#10;&#9;&#9;&#9;&#9;106.142,40.355 106.142,29.391 40.355,29.391 40.355,56.802 &#9;&#9;&#9;" style="fill-opacity: 0;"/>
      </g>
      <g>
        <rect x="40.355" y="29.391" fill="#FFE2A9" width="21.929" height="252.183" style="fill-opacity: 0;"/>
      </g>
      <g>
        <polygon points="226.751,265.127 56.802,265.127 56.802,29.391 106.142,29.391 106.142,40.355 177.411,40.355 &#10;&#9;&#9;&#9;&#9;177.408,29.391 226.751,29.391 &#9;&#9;&#9;" style="fill: rgb(255, 255, 255); fill-opacity: 0;"/>
      </g>
      <g>
        <rect x="106.142" y="18.426" fill="#FFDA88" width="71.269" height="21.929" style="fill-opacity: 0;"/>
      </g>
      <g>
        <path fill="#7FD3B9" d="M166.447,122.589c-2.096-13.055-11.023-21.929-24.67-21.929c-13.647,0-22.574,8.874-24.67,21.929 c-10.965,0-16.447,8.727-16.447,16.902c0,8.829,7.161,15.992,15.989,15.992c4.115,0,46.141,0,50.256,0 c8.828,0,15.989-7.163,15.989-15.992C182.893,131.315,177.411,122.589,166.447,122.589z" style="fill-opacity: 0;"/>
      </g>
      <g>
        <path fill="#BBEAD9" d="M111.624,139.49c0-8.175,5.482-16.902,16.447-16.902c1.799-11.205,8.66-19.287,19.188-21.364 c-1.737-0.343-3.55-0.565-5.482-0.565c-13.647,0-22.574,8.874-24.67,21.929c-10.965,0-16.447,8.727-16.447,16.902 c0,8.829,7.161,15.992,15.989,15.992c1.167,0,5.431,0,10.965,0C118.785,155.482,111.624,148.319,111.624,139.49z" style="fill-opacity: 0;"/>
      </g>
      <g>
        <ellipse fill="#7FD3B9" cx="106.142" cy="95.177" rx="7.311" ry="10.965" style="fill-opacity: 0;"/>
      </g>
      <g>
        <ellipse fill="#7FD3B9" cx="177.411" cy="95.177" rx="7.311" ry="10.965" style="fill-opacity: 0;"/>
      </g>
      <g>
        <ellipse fill="#7FD3B9" cx="128.071" cy="73.248" rx="7.311" ry="10.964" style="fill-opacity: 0;"/>
      </g>
      <g>
        <ellipse fill="#7FD3B9" cx="155.482" cy="73.248" rx="7.311" ry="10.964" style="fill-opacity: 0;"/>
      </g>
      <g>
        <rect x="78.731" y="188.376" fill="#C1C1C1" width="54.822" height="10.965" style="fill-opacity: 0;"/>
      </g>
      <g>
        <rect x="78.731" y="226.751" fill="#C1C1C1" width="54.822" height="10.965" style="fill-opacity: 0;"/>
      </g>
      <g>
        <path fill="#C1C1C1" d="M196.128,180.623L184.5,192.252l-3.876-3.876c-2.141-2.141-5.613-2.141-7.755,0 c-2.139,2.141-2.139,5.61,0,7.752l7.755,7.752c2.139,2.142,5.611,2.142,7.752,0l15.507-15.504c2.139-2.141,2.139-5.611,0-7.752 C201.742,178.482,198.27,178.482,196.128,180.623z" style="fill-opacity: 0;"/>
      </g>
      <g>
        <path fill="#C1C1C1" d="M196.128,218.999L184.5,230.627l-3.876-3.876c-2.141-2.141-5.613-2.141-7.755,0 c-2.139,2.141-2.139,5.611,0,7.752l7.755,7.752c2.139,2.142,5.611,2.142,7.752,0l15.507-15.504c2.139-2.141,2.139-5.611,0-7.752 C201.742,216.858,198.27,216.858,196.128,218.999z" style="fill-opacity: 0;"/>
      </g>
      <g>
        <rect x="106.142" y="18.426" fill="#FFE2A9" width="10.965" height="21.929" style="fill-opacity: 0;"/>
      </g>
      <g>
        <rect x="56.802" y="29.391" fill="#EFEFEF" width="5.482" height="235.737" style="fill-opacity: 0;"/>
      </g>
      <g>
        <path fill="#BBEAD9" d="M104.314,95.177c0-4.596,1.892-8.521,4.57-10.151c-0.849-0.516-1.77-0.814-2.741-0.814 c-4.034,0-7.311,4.912-7.311,10.965s3.277,10.965,7.311,10.965c0.972,0,1.893-0.297,2.741-0.814 C106.206,103.698,104.314,99.774,104.314,95.177z" style="fill-opacity: 0;"/>
      </g>
      <g>
        <path fill="#BBEAD9" d="M175.583,95.177c0-4.596,1.893-8.521,4.57-10.151c-0.849-0.516-1.77-0.814-2.741-0.814 c-4.034,0-7.311,4.912-7.311,10.965s3.277,10.965,7.311,10.965c0.972,0,1.893-0.297,2.741-0.814 C177.475,103.698,175.583,99.774,175.583,95.177z" style="fill-opacity: 0;"/>
      </g>
      <g>
        <path fill="#BBEAD9" d="M153.654,73.248c0-4.596,1.893-8.52,4.57-10.151c-0.849-0.516-1.77-0.814-2.741-0.814 c-4.034,0-7.311,4.912-7.311,10.964c0,6.052,3.277,10.965,7.311,10.965c0.971,0,1.892-0.297,2.741-0.814 C155.546,81.769,153.654,77.845,153.654,73.248z" style="fill-opacity: 0;"/>
      </g>
      <g>
        <path fill="#BBEAD9" d="M126.243,73.248c0-4.596,1.892-8.52,4.569-10.151c-0.849-0.516-1.77-0.814-2.741-0.814 c-4.034,0-7.311,4.912-7.311,10.964c0,6.052,3.277,10.965,7.311,10.965c0.971,0,1.893-0.297,2.741-0.814 C128.135,81.769,126.243,77.845,126.243,73.248z" style="fill-opacity: 0;"/>
      </g>
    </g>
    <g>
      <g>
        <path d="M177.411,45.837h-71.269c-3.027,0-5.482-2.455-5.482-5.482V18.426c0-3.028,2.455-5.482,5.482-5.482 h71.269c3.028,0,5.482,2.455,5.482,5.482v21.929C182.893,43.383,180.439,45.837,177.411,45.837z M111.624,34.873h60.305V23.908 h-60.305V34.873z" style="fill: rgb(26, 41, 84);"/>
      </g>
      <g>
        <path d="M259.645,287.056h-16.447c-3.027,0-5.482-2.455-5.482-5.482V29.391c0-3.028,2.455-5.482,5.482-5.482 h16.447c3.027,0,5.482,2.455,5.482,5.482v252.183C265.127,284.602,262.672,287.056,259.645,287.056z M248.68,276.092h5.482 V34.873h-5.482V276.092z" style="fill: rgb(26, 41, 84);"/>
      </g>
      <g>
        <path d="M106.142,111.624c-7.174,0-12.793-7.225-12.793-16.447c0-9.222,5.619-16.447,12.793-16.447 c7.174,0,12.793,7.225,12.793,16.447C118.935,104.399,113.316,111.624,106.142,111.624z M105.992,89.671 c-0.262,0.233-1.678,2.211-1.678,5.506c0,3.295,1.416,5.273,1.978,5.506c0.262-0.233,1.678-2.211,1.678-5.506 C107.97,91.882,106.554,89.904,105.992,89.671z" style="fill: rgb(26, 41, 84);"/>
      </g>
      <g>
        <path d="M177.411,111.624c-7.174,0-12.793-7.225-12.793-16.447c0-9.222,5.619-16.447,12.793-16.447 c7.174,0,12.793,7.225,12.793,16.447C190.204,104.399,184.585,111.624,177.411,111.624z M177.261,89.671 c-0.262,0.233-1.678,2.211-1.678,5.506c0,3.295,1.416,5.273,1.978,5.506c0.262-0.233,1.678-2.211,1.678-5.506 C179.24,91.882,177.824,89.904,177.261,89.671z" style="fill: rgb(26, 41, 84);"/>
      </g>
      <g>
        <path d="M128.071,89.695c-7.174,0-12.793-7.225-12.793-16.447c0-9.222,5.619-16.447,12.793-16.447 c7.174,0,12.793,7.225,12.793,16.447C140.864,82.47,135.245,89.695,128.071,89.695z M127.921,67.742 c-0.262,0.233-1.678,2.211-1.678,5.506c0,3.295,1.416,5.273,1.978,5.506c0.262-0.233,1.678-2.211,1.678-5.506 C129.899,69.953,128.483,67.975,127.921,67.742z" style="fill: rgb(26, 41, 84);"/>
      </g>
      <g>
        <path d="M155.482,89.695c-7.174,0-12.793-7.225-12.793-16.447c0-9.222,5.619-16.447,12.793-16.447 c7.174,0,12.793,7.225,12.793,16.447C168.275,82.47,162.656,89.695,155.482,89.695z M155.332,67.742 c-0.262,0.233-1.678,2.211-1.678,5.506c0,3.295,1.416,5.273,1.978,5.506c0.262-0.233,1.678-2.211,1.678-5.506 C157.311,69.953,155.895,67.975,155.332,67.742z" style="fill: rgb(26, 41, 84);"/>
      </g>
      <g>
        <rect x="78.731" y="188.376" width="54.822" height="10.965" style="fill: rgb(26, 41, 84);"/>
      </g>
      <g>
        <rect x="78.731" y="226.751" width="54.822" height="10.965" style="fill: rgb(26, 41, 84);"/>
      </g>
      <g>
        <path d="M196.128,180.623L184.5,192.252l-3.876-3.876c-2.141-2.141-5.613-2.141-7.755,0 c-2.139,2.141-2.139,5.613,0,7.752l7.755,7.755c2.139,2.139,5.611,2.139,7.752,0l15.507-15.507c2.139-2.141,2.139-5.613,0-7.752 C201.742,178.482,198.27,178.482,196.128,180.623z" style="fill: rgb(26, 41, 84);"/>
      </g>
      <g>
        <path d="M196.128,218.999L184.5,230.627l-3.876-3.876c-2.141-2.141-5.613-2.141-7.755,0 c-2.139,2.141-2.139,5.613,0,7.752l7.755,7.755c2.139,2.139,5.611,2.139,7.752,0l15.507-15.507c2.139-2.141,2.139-5.613,0-7.752 C201.742,216.858,198.27,216.858,196.128,218.999z" style="fill: rgb(26, 41, 84);"/>
      </g>
      <g>
        <path d="M243.198,287.056H40.355c-3.028,0-5.482-2.455-5.482-5.482V78.731c0-3.027,2.455-5.482,5.482-5.482 c3.028,0,5.482,2.455,5.482,5.482v197.361h191.879V34.873h-54.823v5.482c0,3.028-2.455,5.482-5.482,5.482h-71.269 c-3.027,0-5.482-2.455-5.482-5.482v-5.482H45.837v21.929c0,3.028-2.455,5.482-5.482,5.482c-3.028,0-5.482-2.455-5.482-5.482 V29.391c0-3.028,2.455-5.482,5.482-5.482h65.787c3.028,0,5.482,2.455,5.482,5.482v5.482h60.305v-5.482 c0-3.028,2.455-5.482,5.482-5.482h65.787c3.028,0,5.482,2.455,5.482,5.482v252.183 C248.68,284.602,246.226,287.056,243.198,287.056z" style="fill: rgb(26, 41, 84);"/>
      </g>
      <g>
        <path d="M166.904,160.964c-3.028,0-5.71-2.455-5.71-5.482c0-3.027,2.225-5.482,5.252-5.482h0.458 c5.793,0,10.507-4.714,10.507-10.51c0-3.951-2.291-11.419-10.964-11.419c-2.693,0-4.987-1.954-5.413-4.612 c-1.767-11.005-8.786-17.317-19.258-17.317c-10.472,0-17.491,6.312-19.257,17.317c-0.426,2.658-2.72,4.612-5.413,4.612 c-8.673,0-10.965,7.469-10.965,11.419c0,5.796,4.714,10.51,10.507,10.51h27.869c3.027,0,5.482,2.455,5.482,5.482 c0,3.028-2.455,5.482-5.482,5.482h-27.869c-11.84,0-21.471-9.634-21.471-21.474c0-9.645,6.071-19.828,17.421-21.972 c3.801-13.893,14.661-22.341,29.178-22.341c14.517,0,25.377,8.448,29.178,22.341c11.35,2.144,17.421,12.327,17.421,21.972 C188.376,151.33,178.744,160.964,166.904,160.964z" style="fill: rgb(26, 41, 84);"/>
      </g>
      <g>
        <path d="M226.751,270.609H56.802c-3.028,0-5.482-2.455-5.482-5.482V29.391c0-3.028,2.455-5.482,5.482-5.482h49.34 c3.028,0,5.482,2.455,5.482,5.482v5.482h60.302v-5.482c0-1.453,0.578-2.848,1.606-3.876c1.028-1.028,2.423-1.606,3.876-1.606 h49.343c3.028,0,5.482,2.455,5.482,5.482v235.737C232.234,268.155,229.779,270.609,226.751,270.609z M62.284,259.645h158.985 V34.873h-38.378l0.003,5.482c0,1.454-0.578,2.848-1.606,3.876c-1.028,1.028-2.423,1.606-3.876,1.606h-71.269 c-3.027,0-5.482-2.455-5.482-5.482v-5.482H62.284V259.645z" style="fill: rgb(26, 41, 84);"/>
      </g>
    </g>
  </g>
</svg>