<?xml version="1.0" encoding="utf-8"?>
<svg version="1.1" id="Layer_1" xmlns="http://www.w3.org/2000/svg" x="0px" y="0px" viewBox="0 0 300 300" enable-background="new 0 0 300 300">
  <g>
    <g>
      <g>
        <ellipse transform="matrix(0.9198 -0.3925 0.3925 0.9198 -66.6144 78.3095)" cx="158.223" cy="202.081" rx="41.117" ry="41.117" fill="#E5E5E4" style="fill-opacity: 0;"/>
      </g>
      <g>
        <path d="M128.071,202.081c0-20.847,15.526-38.022,35.635-40.71c-1.799-0.241-3.619-0.407-5.482-0.407 c-22.711,0-41.117,18.406-41.117,41.117c0,22.711,18.406,41.117,41.117,41.117c1.863,0,3.684-0.166,5.482-0.407 C143.597,240.104,128.071,222.929,128.071,202.081z" fill="#EFEFEF" style="fill-opacity: 0;"/>
      </g>
      <g>
        <rect x="128.071" y="73.249" width="60.305" height="49.34" fill="#FE6F80" style="fill-opacity: 0;"/>
      </g>
      <g>
        <path d="M111.624,73.249H43.096c-13.626,0-24.67,11.045-24.67,24.67c0,13.626,11.045,24.67,24.67,24.67h68.528 V73.249z" fill="#FE6F80" style="fill-opacity: 0;"/>
      </g>
      <g>
        <path d="M29.391,97.919c0-13.625,11.044-24.67,24.67-24.67H43.096c-13.626,0-24.67,11.045-24.67,24.67 c0,13.626,11.045,24.67,24.67,24.67h10.964C40.435,122.589,29.391,111.544,29.391,97.919z" fill="#FFA1AA" style="fill-opacity: 0;"/>
      </g>
      <g>
        <path d="M256.904,73.249h-52.081v16.447h2.741c4.54,0,8.223,3.684,8.223,8.223c0,4.54-3.684,8.223-8.223,8.223 h-2.741v16.447h52.081c13.625,0,24.67-11.045,24.67-24.67C281.574,84.293,270.529,73.249,256.904,73.249z" fill="#FE6F80" style="fill-opacity: 0;"/>
      </g>
      <g>
        <ellipse transform="matrix(0.9231 -0.3846 0.3846 0.9231 -33.502 28.3242)" cx="54.061" cy="97.919" rx="8.223" ry="8.223" fill="#E5E5E4" style="fill-opacity: 0;"/>
      </g>
      <g>
        <ellipse transform="matrix(0.7071 -0.7071 0.7071 0.7071 -40.5592 97.9187)" cx="97.919" cy="97.919" rx="8.223" ry="8.223" fill="#E5E5E4" style="fill-opacity: 0;"/>
      </g>
      <g>
        <ellipse transform="matrix(0.7071 -0.7071 0.7071 0.7071 -27.7135 128.931)" cx="141.777" cy="97.919" rx="8.223" ry="8.223" fill="#E5E5E4" style="fill-opacity: 0;"/>
      </g>
      <g>
        <path d="M215.787,97.919c0,4.54-3.684,8.223-8.223,8.223H174.67c-4.54,0-8.223-3.684-8.223-8.223l0,0 c0-4.54,3.684-8.223,8.223-8.223h32.894C212.103,89.695,215.787,93.379,215.787,97.919L215.787,97.919z" fill="#E5E5E4" style="fill-opacity: 0;"/>
      </g>
      <g>
        <path d="M177.411,97.919c0-4.54,3.683-8.223,8.223-8.223H174.67c-4.54,0-8.223,3.684-8.223,8.223 c0,4.54,3.684,8.223,8.223,8.223h10.965C181.095,106.142,177.411,102.459,177.411,97.919z" fill="#EFEFEF" style="fill-opacity: 0;"/>
      </g>
      <g>
        <polygon points="188.376,106.142 188.376,122.589 128.071,122.589 128.071,73.249 188.376,73.249 188.376,89.695 &#10;&#9;&#9;&#9;&#9;204.822,89.695 204.822,56.802 111.624,56.802 111.624,139.036 204.822,139.036 204.822,106.142 &#9;&#9;&#9;" fill="#FFDA88" style="fill-opacity: 0;"/>
      </g>
      <g>
        <path d="M170.558,210.305c-1.044-6.526-5.515-10.964-12.335-10.964c-6.82,0-11.291,4.438-12.335,10.964 c-5.488,0-8.223,4.363-8.223,8.454c0,4.406,3.581,7.993,7.999,7.993c2.056,0,23.064,0,25.12,0c4.417,0,7.999-3.587,7.999-7.993 C178.782,214.668,176.046,210.305,170.558,210.305z" fill="#FE6F80" style="fill-opacity: 0;"/>
      </g>
      <g>
        <path d="M182.893,196.599c0,4.54-2.452,8.223-5.482,8.223c-3.03,0-5.482-3.684-5.482-8.223 c0-4.54,2.452-8.223,5.482-8.223C180.441,188.376,182.893,192.059,182.893,196.599z" fill="#FE6F80" style="fill-opacity: 0;"/>
      </g>
      <g>
        <path d="M144.518,196.599c0,4.54-2.452,8.223-5.482,8.223s-5.482-3.684-5.482-8.223 c0-4.54,2.452-8.223,5.482-8.223S144.518,192.059,144.518,196.599z" fill="#FE6F80" style="fill-opacity: 0;"/>
      </g>
      <g>
        <path d="M155.482,185.635c0,4.54-2.452,8.223-5.482,8.223s-5.482-3.684-5.482-8.223 c0-4.54,2.452-8.223,5.482-8.223S155.482,181.095,155.482,185.635z" fill="#FE6F80" style="fill-opacity: 0;"/>
      </g>
      <g>
        <path d="M171.929,185.635c0,4.54-2.452,8.223-5.482,8.223c-3.03,0-5.482-3.684-5.482-8.223 c0-4.54,2.452-8.223,5.482-8.223C169.477,177.411,171.929,181.095,171.929,185.635z" fill="#FE6F80" style="fill-opacity: 0;"/>
      </g>
      <g>
        <path d="M158.223,160.965c2.816,0,5.568,0.284,8.223,0.824v-22.753H150v22.753 C152.656,161.249,155.407,160.965,158.223,160.965z" fill="#FFDA88" style="fill-opacity: 0;"/>
      </g>
      <g>
        <rect x="111.624" y="56.802" width="10.964" height="82.234" fill="#FFE2A9" style="fill-opacity: 0;"/>
      </g>
      <g>
        <path d="M160.964,139.036H150v22.753c2.656-0.54,5.407-0.824,8.223-0.824c0.926,0,1.831,0.075,2.741,0.139 V139.036z" fill="#FFE2A9" style="fill-opacity: 0;"/>
      </g>
    </g>
    <g>
      <g>
        <path fill="#161616" d="M188.376,128.071h-60.305c-3.03,0-5.482-2.452-5.482-5.482v-49.34c0-3.03,2.452-5.482,5.482-5.482h60.305 c3.03,0,5.482,2.452,5.482,5.482v49.34C193.858,125.619,191.406,128.071,188.376,128.071z M133.553,117.107h49.34V78.731h-49.34 V117.107z"/>
      </g>
      <g>
        <ellipse transform="matrix(0.9231 -0.3846 0.3846 0.9231 -33.502 28.3242)" cx="54.061" cy="97.919" rx="8.223" ry="8.223" style="fill: rgb(26, 41, 84);"/>
      </g>
      <g>
        <ellipse transform="matrix(0.7071 -0.7071 0.7071 0.7071 -40.5592 97.9187)" cx="97.919" cy="97.919" rx="8.223" ry="8.223" style="fill: rgb(26, 41, 84);"/>
      </g>
      <g>
        <ellipse transform="matrix(0.7071 -0.7071 0.7071 0.7071 -27.7135 128.931)" cx="141.777" cy="97.919" rx="8.223" ry="8.223" style="fill: rgb(26, 41, 84);"/>
      </g>
      <g>
        <path d="M207.564,111.624H174.67c-7.559,0-13.706-6.146-13.706-13.706c0-7.559,6.146-13.706,13.706-13.706h32.894 c7.559,0,13.706,6.146,13.706,13.706C221.269,105.478,215.123,111.624,207.564,111.624z M174.67,95.178 c-1.51,0-2.741,1.231-2.741,2.741c0,1.51,1.231,2.741,2.741,2.741h32.894c1.51,0,2.741-1.231,2.741-2.741 c0-1.51-1.231-2.741-2.741-2.741H174.67z" style="fill: rgb(26, 41, 84);"/>
      </g>
      <g>
        <path d="M256.904,128.071h-52.081c-3.03,0-5.482-2.452-5.482-5.482v-16.447c0-3.03,2.452-5.482,5.482-5.482h2.741 c1.51,0,2.741-1.231,2.741-2.741c0-1.51-1.231-2.741-2.741-2.741h-2.741c-3.03,0-5.482-2.452-5.482-5.482V73.249 c0-3.03,2.452-5.482,5.482-5.482h52.081c16.623,0,30.152,13.529,30.152,30.152C287.056,114.542,273.527,128.071,256.904,128.071z M210.305,117.107h46.599c10.579,0,19.188-8.609,19.188-19.188c0-10.579-8.609-19.188-19.188-19.188h-46.599v5.755 c6.248,1.274,10.965,6.815,10.965,13.432c0,6.617-4.717,12.158-10.965,13.433V117.107z" style="fill: rgb(26, 41, 84);"/>
      </g>
      <g>
        <path d="M204.822,144.518h-93.198c-3.028,0-5.482-2.452-5.482-5.482V56.802c0-3.03,2.455-5.482,5.482-5.482 h93.198c3.03,0,5.482,2.452,5.482,5.482v32.894c0,3.03-2.452,5.482-5.482,5.482h-16.447c-3.03,0-5.482-2.452-5.482-5.482V78.731 h-49.34v38.376h49.34v-10.965c0-3.03,2.452-5.482,5.482-5.482h16.447c3.03,0,5.482,2.452,5.482,5.482v32.894 C210.305,142.066,207.853,144.518,204.822,144.518z M117.106,133.553h82.234v-21.929h-5.482v10.965 c0,3.03-2.452,5.482-5.482,5.482h-60.305c-3.03,0-5.482-2.452-5.482-5.482v-49.34c0-3.03,2.452-5.482,5.482-5.482h60.305 c3.03,0,5.482,2.452,5.482,5.482v10.965h5.482V62.284h-82.234V133.553z" style="fill: rgb(26, 41, 84);"/>
      </g>
      <g>
        <path d="M170.558,210.305c-1.044-6.526-5.515-10.964-12.335-10.964c-6.82,0-11.291,4.438-12.335,10.964 c-5.488,0-8.223,4.363-8.223,8.454c0,4.406,3.581,7.993,7.999,7.993c2.056,0,23.064,0,25.12,0c4.417,0,7.999-3.587,7.999-7.993 C178.782,214.668,176.046,210.305,170.558,210.305z" style="fill: rgb(26, 41, 84);"/>
      </g>
      <g>
        <path d="M182.893,196.599c0,4.54-2.452,8.223-5.482,8.223c-3.03,0-5.482-3.684-5.482-8.223 c0-4.54,2.452-8.223,5.482-8.223C180.441,188.376,182.893,192.059,182.893,196.599z" style="fill: rgb(26, 41, 84);"/>
      </g>
      <g>
        <path d="M144.518,196.599c0,4.54-2.452,8.223-5.482,8.223s-5.482-3.684-5.482-8.223 c0-4.54,2.452-8.223,5.482-8.223S144.518,192.059,144.518,196.599z" style="fill: rgb(26, 41, 84);"/>
      </g>
      <g>
        <path d="M155.482,185.635c0,4.54-2.452,8.223-5.482,8.223s-5.482-3.684-5.482-8.223 c0-4.54,2.452-8.223,5.482-8.223S155.482,181.095,155.482,185.635z" style="fill: rgb(26, 41, 84);"/>
      </g>
      <g>
        <path d="M171.929,185.635c0,4.54-2.452,8.223-5.482,8.223c-3.03,0-5.482-3.684-5.482-8.223 c0-4.54,2.452-8.223,5.482-8.223C169.477,177.411,171.929,181.095,171.929,185.635z" style="fill: rgb(26, 41, 84);"/>
      </g>
      <g>
        <path d="M166.447,167.271c-0.364,0-0.728-0.038-1.092-0.112c-4.658-0.942-9.605-0.942-14.262,0 c-1.617,0.327-3.282-0.08-4.561-1.124c-1.274-1.039-2.013-2.602-2.013-4.245v-22.753c0-3.03,2.452-5.482,5.482-5.482h16.447 c3.03,0,5.482,2.452,5.482,5.482v22.753c0,1.644-0.739,3.207-2.013,4.245C168.926,166.843,167.699,167.271,166.447,167.271z M158.223,155.482c0.916,0,1.831,0.027,2.741,0.08v-11.045h-5.482v11.045C156.392,155.509,157.308,155.482,158.223,155.482z" style="fill: rgb(26, 41, 84);"/>
      </g>
      <g>
        <path d="M111.624,128.071H43.096c-16.626,0-30.152-13.529-30.152-30.152c0-16.623,13.526-30.152,30.152-30.152 h19.188c3.028,0,5.482,2.452,5.482,5.482c0,3.03-2.455,5.482-5.482,5.482H43.096c-10.579,0-19.188,8.609-19.188,19.188 c0,10.579,8.609,19.188,19.188,19.188h63.046V78.731H84.213c-3.028,0-5.482-2.452-5.482-5.482c0-3.03,2.455-5.482,5.482-5.482 h27.411c3.027,0,5.482,2.452,5.482,5.482v49.34C117.106,125.619,114.652,128.071,111.624,128.071z" style="fill: rgb(26, 41, 84);"/>
      </g>
      <g>
        <path d="M158.223,248.68c-25.693,0-46.599-20.906-46.599-46.599c0-25.693,20.906-46.599,46.599-46.599 s46.599,20.906,46.599,46.599c0,8.02-2.099,15.96-6.071,22.957c-1.499,2.639-4.84,3.555-7.474,2.066 c-2.634-1.499-3.56-4.845-2.067-7.474c3.041-5.354,4.647-11.425,4.647-17.55c0-19.648-15.986-35.635-35.635-35.635 s-35.635,15.986-35.635,35.635c0,19.648,15.986,35.635,35.635,35.635c6.125,0,12.196-1.606,17.55-4.647 c2.629-1.483,5.975-0.568,7.474,2.066c1.494,2.629,0.568,5.975-2.067,7.474C174.183,246.582,166.243,248.68,158.223,248.68z" style="fill: rgb(26, 41, 84);"/>
      </g>
    </g>
  </g>
</svg>