<?xml version="1.0" encoding="utf-8"?>
<svg xmlns="http://www.w3.org/2000/svg" width="128" height="128" viewBox="0 0 128 128">
  <title>BRUSH TEETH</title>
  <path d="M110.447,25.225l-1.134-1.132a7.421,7.421,0,0,0-9.769-.624L88.917,12.843a5.589,5.589,0,0,0-7.9,0L55.746,38.117a5.59,5.59,0,0,0,0,7.9l10.58,10.579L19.352,103.565a7.418,7.418,0,0,0,0,10.489l1.133,1.133a7.425,7.425,0,0,0,10.489,0l79.473-79.473A7.413,7.413,0,0,0,110.447,25.225ZM83.5,15.317a2.134,2.134,0,0,1,2.947,0L97.021,25.9l-5.2,5.2L79.769,19.043Zm.653,23.452L72.1,26.717l5.2-5.2L89.348,33.57Zm-7.673,7.674L64.422,34.391l5.2-5.2L81.674,41.244ZM58.221,43.538a2.084,2.084,0,0,1,0-2.946l3.726-3.727L74,48.918l-5.2,5.2Zm49.752-10.3L28.5,112.713a3.92,3.92,0,0,1-5.538,0l-1.134-1.134a3.921,3.921,0,0,1,0-5.539L101.3,26.567a3.92,3.92,0,0,1,5.539,0l1.134,1.132A3.921,3.921,0,0,1,107.973,33.239Z" style="fill: rgb(26, 41, 84);"/>
</svg>