<?xml version="1.0" encoding="utf-8"?>
<svg xmlns="http://www.w3.org/2000/svg" width="128" height="128" viewBox="0 0 128 128">
  <title>VACCINE</title>
  <path d="M116.437,28.306,99.694,11.563a1.749,1.749,0,1,0-2.474,2.474l3.494,3.495L88.629,29.616l-9.924-9.925a1.75,1.75,0,0,0-2.475,2.475l2.593,2.593L68.353,35.228h0l0,0-11.7,11.7v0h0L44.936,58.645h0l-7.38,7.38a7.867,7.867,0,0,0,0,11.129l.069.07-11.9,11.9a6.507,6.507,0,0,0,0,9.192l.742.743-14.9,14.9a1.75,1.75,0,0,0,2.475,2.475l14.9-14.9.742.742a6.5,6.5,0,0,0,9.193,0l11.9-11.9.07.069a7.879,7.879,0,0,0,11.129,0l41.268-41.268,2.592,2.593a1.75,1.75,0,0,0,2.475-2.475L98.384,39.37l12.084-12.084,3.495,3.494a1.749,1.749,0,0,0,2.474-2.474ZM36.4,99.806a3.073,3.073,0,0,1-4.243,0L28.2,95.847a3.005,3.005,0,0,1,0-4.244L40.1,79.7l8.2,8.2ZM59.5,87.971a4.376,4.376,0,0,1-6.18,0l-13.29-13.29a4.376,4.376,0,0,1,0-6.18l6.144-6.143,6.55,6.549A1.749,1.749,0,0,0,55.2,66.433l-6.55-6.55,9.234-9.234,6.55,6.55a1.749,1.749,0,1,0,2.474-2.474l-6.549-6.55,9.233-9.233,6.55,6.549a1.75,1.75,0,0,0,2.475-2.474l-6.55-6.55L81.3,27.233l6.094,6.094h0L100.767,46.7ZM95.909,36.9l-4.805-4.8,12.085-12.085,4.805,4.805Z" style="fill: rgb(26, 41, 84);"/>
</svg>